<?xml version="1.0" encoding="utf-8"?>
<!DOCTYPE svg PUBLIC "-//W3C//DTD SVG 1.1//EN" "http://www.w3.org/Graphics/SVG/1.1/DTD/svg11.dtd">
<svg version="1.1" id="Layer_1" xmlns="http://www.w3.org/2000/svg" xmlns:xlink="http://www.w3.org/1999/xlink" x="0px" y="0px"
	 width="277px" height="91px" viewBox="0 0 277 91" enable-background="new 0 0 277 91" xml:space="preserve">
<polygon fill="#221F1F" points="33.217,87.482 0.566,2.743 21.02,2.743 44.523,67.791 68.027,2.743 88.482,2.743 55.832,87.482 " />
<path fill="#221F1F" d="M99.855,75.414l9.91-14.104c5.969,6.225,15.244,11.562,26.932,11.562c10.037,0,14.738-4.447,14.738-9.402
	c0-14.737-48.785-4.447-48.785-36.335c0-14.102,12.197-25.79,32.144-25.79c13.466,0,24.646,4.064,33.032,11.814l-10.037,13.468
	c-6.861-6.353-16.008-9.276-24.648-9.276c-7.623,0-11.941,3.305-11.941,8.386c0,13.34,48.658,4.321,48.658,35.955
	c0,15.498-11.18,27.188-33.922,27.188C119.547,88.881,107.859,83.418,99.855,75.414"/>
<path fill="#A9A84A" d="M276.848,45.113c0,24.879-20.168,45.051-45.051,45.051c-24.879,0-45.051-20.172-45.051-45.051
	c0-24.881,20.172-45.051,45.051-45.051C256.68,0.062,276.848,20.232,276.848,45.113"/>
<path fill="#FFFFFF" d="M242.279,35.658c-7.508,0-13.352,4.595-15.297,10.878c-1.693,1.212-3.48,1.94-5.969,1.94
	c-5.143,0-8.705-4.286-8.705-9.429v-0.091c0-5.144,3.646-9.345,8.705-9.345c3.002,0,5.363,1.285,7.678,3.39l4.199-4.849
	c-2.785-2.742-6.172-4.629-11.836-4.629c-9.215,0-15.648,6.989-15.648,15.524v0.085c0,8.614,6.561,15.434,15.395,15.434
	c2.201,0,4.061-0.303,5.689-0.852c1.141,7.363,7.352,12.987,15.701,12.987c9.266,0,15.994-6.989,15.994-15.524v-0.084
	C258.186,42.563,251.541,35.658,242.279,35.658 M251.287,51.264c0,5.147-3.693,9.35-9.008,9.35s-9.09-4.289-9.09-9.436v-0.084
	c0-5.145,3.688-9.347,9.002-9.347c5.318,0,9.096,4.286,9.096,9.431V51.264z"/>
</svg>
